# xmcd
#
# Track frame offsets: 
#        150
#        4387
#        29875
#        63627
#        71317
#        90020
#        92977
#        113805
#        125140
#        137565
#        151155
#        183640
#
# Disc length: 2508 seconds
#
# Revision: 0
# Processed by: cddbd v1.5.2PL0 Copyright (c) Steve Scherf et al.
# Submitted via: ExactAudioCopy v1.0b3
#
DISCID=a409ca0c
DTITLE=Kalle Sändare - Boxen e' klar - CD 4 - Väggen e' klar
DYEAR=2014
DGENRE=Comedy
TTITLE0=Telefonvakt
TTITLE1=Detta gällde väggen e' klar
TTITLE2=Ja de' va ja' igen
TTITLE3=Josef Perssons auto-matiska telefonsvarare
TTITLE4=Bortsprungen hund i Jämtland
TTITLE5=Telefonvakt, Ingenting kvar
TTITLE6=Symaskinen, Modell Husaqvarna
TTITLE7=Telefonsvarare, Lite annat bara
TTITLE8=Fin hundkoja, Vinterbonad säljes billigt
TTITLE9=Telefonvakt, Det gäller kvällsskiftet
TTITLE10=Taklagsfesten
TTITLE11=Utländsk telefonvakt
EXTD=
EXTT0=
EXTT1=
EXTT2=
EXTT3=
EXTT4=
EXTT5=
EXTT6=
EXTT7=
EXTT8=
EXTT9=
EXTT10=
EXTT11=
PLAYORDER=
